<svg width="16" height="22" viewBox="0 0 16 22" fill="none" xmlns="http://www.w3.org/2000/svg">
<path d="M7.81299 20.9721C7.81299 20.9267 7.76757 20.9267 7.76757 20.9267C7.08627 19.5641 6.26871 18.2924 5.45115 16.9752C4.67901 15.7488 3.86145 14.5225 3.08931 13.2962C2.49885 12.2969 1.95381 11.2977 1.54503 10.2076C1.27251 9.5263 1.09083 8.845 1.04541 8.1637C0.999993 7.34614 1.09083 6.574 1.31793 5.84728C1.99923 3.66712 3.45267 2.21368 5.54199 1.39612C6.45039 1.03276 7.44963 0.941924 8.44887 1.03276C11.2649 1.25986 13.5813 3.21292 14.3989 5.75644C14.6714 6.61942 14.7622 7.4824 14.6714 8.3908C14.5806 9.16294 14.3535 9.88966 14.0355 10.6164C13.5359 11.7973 12.9454 12.8874 12.2641 13.932C11.4466 15.2492 10.5836 16.5664 9.72063 17.8836C9.08475 18.8828 8.49429 19.8821 7.94925 20.8813C7.85841 20.9267 7.81299 20.9267 7.81299 20.9721ZM8.08551 11.6156C8.40345 11.6156 9.03933 11.4794 9.58437 11.1614C11.0378 10.4347 11.8554 8.75416 11.5828 7.16446C11.2649 5.34766 9.76605 3.98506 7.99467 3.93964C7.04085 3.89422 6.17787 4.16674 5.40573 4.7572C4.17939 5.80186 3.67977 7.4824 4.17939 8.98126C4.72443 10.571 6.13245 11.6156 8.08551 11.6156Z" stroke="#F29100" stroke-miterlimit="10" stroke-linecap="round" stroke-linejoin="round"/>
<path d="M7.81299 9.48087C6.85917 9.48087 6.13245 8.70873 6.13245 7.75491C6.13245 6.80109 6.90459 6.07437 7.81299 6.07437C8.76681 6.07437 9.53894 6.84651 9.53894 7.80033C9.49352 8.75415 8.76681 9.48087 7.81299 9.48087Z" stroke="#F29100" stroke-miterlimit="10" stroke-linecap="round" stroke-linejoin="round"/>
<path d="M10.084 20.9721H14.626V17.3385" stroke="#F29100" stroke-miterlimit="10" stroke-linecap="round" stroke-linejoin="round"/>
<path d="M5.542 20.9721H1V17.3385" stroke="#F29100" stroke-miterlimit="10" stroke-linecap="round" stroke-linejoin="round"/>
</svg>
