<?xml version="1.0" encoding="utf-8"?><svg xmlns="http://www.w3.org/2000/svg" xmlns:xlink="http://www.w3.org/1999/xlink"><symbol viewBox="0 0 30 30" id="ZK" xmlns="http://www.w3.org/2000/svg"><path d="M12.222 13.889a1.39 1.39 0 01-.333-.056c-.445-.11-.778-.555-.778-1.055V6.11c0-.611.5-1.111 1.111-1.111s1.111.5 1.111 1.111v3L15.75 5.5a1.112 1.112 0 011.528-.306c.5.334.639 1.028.305 1.528L13.14 13.39c-.195.333-.556.5-.917.5zM16.667 25c-.362 0-.723-.167-.917-.5l-2.417-3.611v3c0 .611-.5 1.111-1.11 1.111-.612 0-1.112-.5-1.112-1.111v-6.667a1.107 1.107 0 012.028-.611l4.444 6.667c.334.5.195 1.194-.305 1.528a1 1 0 01-.611.194z" fill="#F29100"/><path d="M23.889 25c-.361 0-.722-.167-.917-.5l-5.916-8.889a1.09 1.09 0 010-1.222L22.972 5.5a1.111 1.111 0 011.528-.306c.5.334.639 1.028.306 1.528L19.306 15l5.5 8.278c.333.5.194 1.194-.306 1.528a1 1 0 01-.611.194zM6.111 25C5.5 25 5 24.5 5 23.889V6.11C5 5.5 5.5 5 6.111 5s1.111.5 1.111 1.111V23.89c0 .611-.5 1.111-1.11 1.111z"/><path d="M30 30H0V0h30v30zM2.222 27.778h25.556V2.222H2.222v25.556z"/></symbol><symbol viewBox="0 0 197 63" id="webjet" xmlns="http://www.w3.org/2000/svg"><path fill-rule="evenodd" clip-rule="evenodd" d="M178.026 12.534v-.303h-23.379v5.454l23.379-5.15zm-23.379 7.726l23.379-7.082v7.944h-7.244v40.502h-8.891V21.122h-7.244v-.862zm-3.541-1.795V12.23h-20.415v10.731l20.415-4.497zm-20.415 9.052l8.89-2.693V31h9.747v8.89h-9.747v12.843h11.525v8.89h-20.415V27.519zm-9.227-2.522V12.231h-8.891v14.723l8.891-1.959zm-8.891 8.01l8.891-2.692V49.9c0 3.644-1.098 6.586-3.293 8.825-2.195 2.24-5.159 3.359-8.891 3.359h-4.478v-8.891h4.478c1.054 0 1.866-.296 2.437-.889.571-.615.856-1.416.856-2.404V33.006zm-12.311-3.34v-5.25c0-3.667-1.097-6.608-3.292-8.825-2.196-2.24-5.16-3.36-8.891-3.36H75.895v22.804l9.342-2.058h-.451V21.122h3.293c1.054 0 1.866.307 2.437.922.57.592.856 1.383.856 2.37v5.269c0 .818-.196 1.509-.588 2.07l9.478-2.087zM75.895 44.118l22.54-6.828c.753.952 1.34 2.061 1.762 3.326.483 1.383.724 2.898.724 4.544v4.281c0 3.644-1.098 6.586-3.293 8.825-2.195 2.24-5.159 3.359-8.89 3.359H75.894V44.117zm-9.467-6.998V31H56.68v-9.878h11.525V12.23H47.79v28.994l18.638-4.106zM47.79 52.631l8.89-2.693v2.795h11.526v8.89H47.79v-8.992zm-10.469-9.1l3.84-31.3h-9.089l-3.095 30.162-4.807-30.162h-7.18l-4.807 30.162-3.096-30.162H0l4.72 38.483 13.608-2.998 2.285-11.974 2.074 11.013 14.634-3.223zM25.088 59.509l10.67-3.232-.656 5.348h-9.615l-.399-2.116zm59.698-17.641v10.866h3.951c1.054 0 1.866-.296 2.437-.889.57-.615.856-1.416.856-2.404v-4.28c0-.988-.285-1.779-.856-2.371-.57-.615-1.383-.922-2.437-.922h-3.951z"/><path d="M192.021 6.72c.723-.241 2.29-.113 2.531.61.241.723-.934 1.767-1.657 2.008l-9.686 3.234-.874-2.618 9.686-3.234z"/><path d="M187.692 17.767l3.893-8.865-4.06 1.356-.736 7.81.903-.301zm-4.894-14.66l8.438 4.748-4.06 1.356-5.28-5.803.902-.3zm-.19 11.556l1.692-4.056-1.805.602-.288 3.588.401-.134z"/><path d="M180.599 8.642l3.79 2.227-1.805.602-2.386-2.695.401-.134z"/></symbol></svg>