<svg width="30" height="30" viewBox="0 0 30 30" fill="none" xmlns="http://www.w3.org/2000/svg">
<path d="M12.2222 13.8889C12.1111 13.8889 12 13.8611 11.8889 13.8333C11.4444 13.7222 11.1111 13.2778 11.1111 12.7778V6.11111C11.1111 5.5 11.6111 5 12.2222 5C12.8333 5 13.3333 5.5 13.3333 6.11111V9.11111L15.75 5.5C16.0833 5 16.7778 4.86111 17.2778 5.19444C17.7778 5.52778 17.9166 6.22222 17.5833 6.72222L13.1389 13.3889C12.9444 13.7222 12.5833 13.8889 12.2222 13.8889Z" fill="#F29100"/>
<path d="M16.6666 25C16.3055 25 15.9444 24.8333 15.75 24.5L13.3333 20.8889V23.8889C13.3333 24.5 12.8333 25 12.2222 25C11.6111 25 11.1111 24.5 11.1111 23.8889V17.2222C11.1111 16.7222 11.4444 16.3056 11.8889 16.1667C12.3611 16.0278 12.8611 16.1945 13.1389 16.6111L17.5833 23.2778C17.9166 23.7778 17.7778 24.4722 17.2778 24.8056C17.0833 24.9444 16.8889 25 16.6666 25Z" fill="#F29100"/>
<path d="M23.8889 25C23.5278 25 23.1667 24.8333 22.9723 24.5L17.0556 15.6111C16.8056 15.25 16.8056 14.75 17.0556 14.3889L22.9723 5.5C23.3056 5 24 4.86111 24.5 5.19444C25 5.52778 25.1389 6.22222 24.8056 6.72222L19.3056 15L24.8056 23.2778C25.1389 23.7778 25 24.4722 24.5 24.8056C24.3056 24.9444 24.1112 25 23.8889 25Z" fill="white"/>
<path d="M6.11111 25C5.5 25 5 24.5 5 23.8889V6.11111C5 5.5 5.5 5 6.11111 5C6.72222 5 7.22222 5.5 7.22222 6.11111V23.8889C7.22222 24.5 6.72222 25 6.11111 25Z" fill="white"/>
<path d="M30 30H0V0H30V30ZM2.22222 27.7778H27.7778V2.22222H2.22222V27.7778Z" fill="white"/>
</svg>
